<svg xmlns="http://www.w3.org/2000/svg" viewBox="0 0 200 200">
  <defs>
    <linearGradient id="g" x1="0%" y1="0%" x2="100%" y2="100%">
      <stop offset="0%" stop-color="#88171a"/>
      <stop offset="100%" stop-color="#c62828"/>
    </linearGradient>
  </defs>
  <!-- Body -->
  <ellipse cx="100" cy="130" rx="55" ry="50" fill="url(#g)"/>
  <!-- Head -->
  <circle cx="100" cy="72" r="38" fill="url(#g)"/>
  <!-- Left ear -->
  <path d="M72 72 L52 28 L80 58 Z" fill="url(#g)"/>
  <!-- Right ear -->
  <path d="M128 72 L148 28 L120 58 Z" fill="url(#g)"/>
  <!-- Eyes -->
  <circle cx="85" cy="70" r="6" fill="#fff"/>
  <circle cx="115" cy="70" r="6" fill="#fff"/>
  <circle cx="85" cy="70" r="3" fill="#1a1a1a"/>
  <circle cx="115" cy="70" r="3" fill="#1a1a1a"/>
  <!-- Nose -->
  <ellipse cx="100" cy="84" rx="5" ry="3.5" fill="#1a1a1a"/>
  <!-- Mouth -->
  <path d="M92 90 Q100 97 108 90" fill="none" stroke="#1a1a1a" stroke-width="1.5" stroke-linecap="round"/>
  <!-- Whiskers left -->
  <line x1="62" y1="76" x2="82" y2="80" stroke="#1a1a1a" stroke-width="1"/>
  <line x1="60" y1="84" x2="82" y2="84" stroke="#1a1a1a" stroke-width="1"/>
  <line x1="62" y1="92" x2="82" y2="88" stroke="#1a1a1a" stroke-width="1"/>
  <!-- Whiskers right -->
  <line x1="138" y1="76" x2="118" y2="80" stroke="#1a1a1a" stroke-width="1"/>
  <line x1="140" y1="84" x2="118" y2="84" stroke="#1a1a1a" stroke-width="1"/>
  <line x1="138" y1="92" x2="118" y2="88" stroke="#1a1a1a" stroke-width="1"/>
  <!-- Feet -->
  <ellipse cx="78" cy="172" rx="14" ry="8" fill="url(#g)"/>
  <ellipse cx="122" cy="172" rx="14" ry="8" fill="url(#g)"/>
  <!-- Tail -->
  <path d="M155 130 Q175 110 165 85 Q160 75 170 65" fill="none" stroke="url(#g)" stroke-width="6" stroke-linecap="round"/>
</svg>
